<svg xmlns="http://www.w3.org/2000/svg" xmlns:xlink="http://www.w3.org/1999/xlink" width="118" height="118" viewBox="0 0 118 118">
    <defs>
        <path id="a" d="M12.68 98.09c0 8.764 27.89 12.856 46.736 12.863 18.845-.007 46.735-4.1 46.735-12.862 0-13.596-7.846-18.507-25.442-24.37-5.927-1.961-10.146-6.427-12.559-12.862-2.709 1.13-5.658 1.778-8.734 1.778-3.055 0-5.997-.649-8.735-1.785-2.413 6.442-6.64 10.908-12.566 12.876C20.526 79.584 12.68 84.495 12.68 98.091zm33.58-41.297c-7.546-5.987-11.358-17.024-11.358-31.123 0-13.518 10.993-24.513 24.514-24.513 13.52 0 24.513 10.995 24.513 24.513 0 14.084-3.801 25.085-11.374 31.113.514.554.93 1.216 1.213 1.97 1.835 4.89 4.78 7.933 8.838 9.276C93.146 71.54 99.39 74.453 103.99 78.5c5.569 4.898 8.16 11.216 8.16 19.59 0 4.758-2.99 8.312-7.739 10.95-3.367 1.871-7.834 3.389-13.233 4.615-9.274 2.107-21.243 3.293-31.766 3.297-10.518-.004-22.487-1.19-31.761-3.297-5.399-1.226-9.865-2.744-13.233-4.615-4.75-2.638-7.739-6.192-7.739-10.95 0-8.374 2.591-14.692 8.16-19.59 4.6-4.046 10.845-6.958 21.384-10.467 4.055-1.347 7.006-4.394 8.838-9.287a5.983 5.983 0 0 1 1.198-1.954zM59.416 7.157c-10.21 0-18.514 8.311-18.514 18.513 0 13.243 3.64 22.916 10.238 27.255 4.924 3.387 11.712 3.345 16.453.05 6.703-4.389 10.336-14.069 10.336-27.305 0-10.202-8.304-18.513-18.513-18.513z"/>
        <filter id="b" width="102.8%" height="102.6%" x="-1.4%" y="-1.3%" filterUnits="objectBoundingBox">
            <feGaussianBlur in="SourceAlpha" result="shadowBlurInner1" stdDeviation="1"/>
            <feOffset dy="1" in="shadowBlurInner1" result="shadowOffsetInner1"/>
            <feComposite in="shadowOffsetInner1" in2="SourceAlpha" k2="-1" k3="1" operator="arithmetic" result="shadowInnerInner1"/>
            <feColorMatrix in="shadowInnerInner1" values="0 0 0 0 0 0 0 0 0 0 0 0 0 0 0 0 0 0 0.05 0"/>
        </filter>
    </defs>
    <g fill="none" fill-rule="nonzero">
        <use fill="#E0E0E0" xlink:href="#a"/>
        <use fill="#000" filter="url(#b)" xlink:href="#a"/>
    </g>
</svg>
