<svg xmlns="http://www.w3.org/2000/svg" xmlns:xlink="http://www.w3.org/1999/xlink" width="100" height="100" viewBox="0 0 100 100">
    <defs>
        <path id="a" d="M41.525 77.966c20.126 0 36.441-16.315 36.441-36.44 0-20.126-16.315-36.441-36.44-36.441C21.4 5.085 5.084 21.4 5.084 41.525c0 20.126 16.315 36.441 36.44 36.441zm31.106-8.93L99.255 95.66a2.542 2.542 0 1 1-3.595 3.595L69.036 72.631a41.369 41.369 0 0 1-27.51 10.42C18.591 83.05 0 64.459 0 41.525 0 18.592 18.592 0 41.525 0 64.46 0 83.051 18.592 83.051 41.525a41.369 41.369 0 0 1-10.42 27.51z"/>
        <filter id="b" width="103%" height="103%" x="-1.5%" y="-1.5%" filterUnits="objectBoundingBox">
            <feGaussianBlur in="SourceAlpha" result="shadowBlurInner1" stdDeviation="1"/>
            <feOffset dy="1" in="shadowBlurInner1" result="shadowOffsetInner1"/>
            <feComposite in="shadowOffsetInner1" in2="SourceAlpha" k2="-1" k3="1" operator="arithmetic" result="shadowInnerInner1"/>
            <feColorMatrix in="shadowInnerInner1" values="0 0 0 0 0 0 0 0 0 0 0 0 0 0 0 0 0 0 0.05 0"/>
        </filter>
    </defs>
    <g fill="none" fill-rule="evenodd">
        <g fill-rule="nonzero">
            <use fill="#E0E0E0" xlink:href="#a"/>
            <use fill="#000" filter="url(#b)" xlink:href="#a"/>
        </g>
        <g fill="#E0E0E0">
            <path d="M57.115 54.551c-.858-4.331-2.59-7.799-5.194-10.403s-6.077-4.34-10.418-5.209c4.331-.858 7.8-2.589 10.404-5.193 2.604-2.603 4.34-6.076 5.208-10.417.885 4.348 2.626 7.82 5.223 10.417 2.598 2.598 6.06 4.329 10.39 5.193-4.334.87-7.802 2.607-10.404 5.209-2.602 2.602-4.338 6.07-5.209 10.403z" opacity=".5"/>
            <path d="M29.015 29.575c-.343-1.733-1.036-3.12-2.078-4.162-1.041-1.042-2.43-1.736-4.167-2.084 1.733-.343 3.12-1.035 4.162-2.077 1.041-1.042 1.736-2.43 2.083-4.167.354 1.739 1.05 3.128 2.09 4.167 1.039 1.039 2.424 1.731 4.156 2.077-1.734.349-3.121 1.043-4.162 2.084-1.041 1.04-1.736 2.428-2.084 4.162z"/>
            <path d="M29.015 67.04c-.687-3.465-2.072-6.239-4.155-8.322-2.083-2.084-4.862-3.473-8.335-4.167 3.466-.687 6.24-2.071 8.323-4.155 2.084-2.083 3.473-4.86 4.167-8.334.708 3.479 2.1 6.257 4.179 8.334 2.078 2.078 4.848 3.463 8.311 4.155-3.467.696-6.241 2.085-8.323 4.167-2.081 2.081-3.47 4.856-4.167 8.323z" opacity=".7"/>
        </g>
    </g>
</svg>
